<?xml version="1.0" encoding="UTF-8" standalone="no"?>
<svg
   width="36"
   height="36"
   viewBox="0 0 36 36"
   fill="none"
   version="1.1"
   id="svg13"
   sodipodi:docname="rustore.svg"
   inkscape:version="1.3.2 (091e20e, 2023-11-25, custom)"
   xmlns:inkscape="http://www.inkscape.org/namespaces/inkscape"
   xmlns:sodipodi="http://sodipodi.sourceforge.net/DTD/sodipodi-0.dtd"
   xmlns="http://www.w3.org/2000/svg"
   xmlns:svg="http://www.w3.org/2000/svg">
  <defs
     id="defs13" />
  <sodipodi:namedview
     id="namedview13"
     pagecolor="#ffffff"
     bordercolor="#000000"
     borderopacity="0.25"
     inkscape:showpageshadow="2"
     inkscape:pageopacity="0.0"
     inkscape:pagecheckerboard="0"
     inkscape:deskcolor="#d1d1d1"
     inkscape:zoom="5.5277778"
     inkscape:cx="72"
     inkscape:cy="18"
     inkscape:window-width="1920"
     inkscape:window-height="1133"
     inkscape:window-x="-9"
     inkscape:window-y="-9"
     inkscape:window-maximized="1"
     inkscape:current-layer="svg13" />
  <path
     fill-rule="evenodd"
     clip-rule="evenodd"
     d="M 17.28,36 C 9.13414,36 5.0612,36 2.5306,33.4694 -2.23137e-7,30.9388 -4.02706e-7,26.8658 -7.61841e-7,18.7199 l -6.3488e-8,-1.44 C -1.18446e-6,9.134 -1.36403e-6,5.06105 2.5306,2.53046 5.0612,3.59535e-6 9.13413,3.41884e-6 17.28,3.06582e-6 v -1e-11 l 1.44,-6.24e-8 v 0 C 26.8659,2.65038e-6 30.9388,2.47387e-6 33.4694,2.53046 36,5.06105 36,9.134 36,17.2799 v 1.44 c 0,8.1459 0,12.2189 -2.5306,14.7495 C 30.9388,36 26.8659,36 18.72,36 Z"
     fill="#0077ff"
     id="path1" />
  <path
     d="m 20.818,22.1855 c -0.9699,-0.2423 -1.65,-1.1099 -1.65,-2.105 V 8.35681 c 0,-1.13029 1.068,-1.95925 2.1697,-1.68404 l 6.9767,1.7428 c 0.9699,0.24229 1.65,1.10993 1.65,2.10503 v 11.7237 c 0,1.1303 -1.0681,1.9592 -2.1697,1.684 z"
     fill="#ffffff"
     id="path2" />
  <path
     d="M 7.68519,27.5844 C 6.71525,27.3421 6.03516,26.4745 6.03516,25.4794 V 13.7557 c 0,-1.1303 1.06804,-1.9592 2.16972,-1.684 l 6.97662,1.7428 c 0.97,0.2423 1.6501,1.1099 1.6501,2.105 v 11.7237 c 0,1.1303 -1.0681,1.9592 -2.1698,1.684 z"
     fill="#ffffff"
     id="path3" />
  <path
     d="m 14.2516,24.8852 c -0.9699,-0.2423 -1.65,-1.1099 -1.65,-2.105 V 11.0565 c 0,-1.13029 1.068,-1.95926 2.1697,-1.68405 l 6.9766,1.74285 c 0.97,0.2422 1.6501,1.1099 1.6501,2.105 V 24.944 c 0,1.1303 -1.0681,1.9592 -2.1697,1.684 z"
     fill="#ffffff"
     id="path4" />
  <path
     d="m 18.8164,26.0288 c -0.3055,-0.0778 -0.523,-0.348 -0.5337,-0.6631 l -0.3035,-8.9533 c -0.0878,-1.1849 -0.9674,-2.1274 -1.8866,-2.4049 -0.0516,-0.0156 -0.1067,0.0054 -0.1372,0.0498 -0.0311,0.0451 -0.0191,0.1076 0.0242,0.1411 0.227,0.1757 0.8517,0.7491 0.8517,1.7382 l -0.0018,9.5887 z"
     fill="#0077ff"
     id="path5" />
  <path
     d="m 25.3828,23.3271 c -0.3052,-0.0764 -0.5229,-0.3458 -0.5336,-0.6602 l -0.3036,-8.9527 c -0.0877,-1.185 -0.9674,-2.1274 -1.8866,-2.405 -0.0516,-0.0155 -0.1067,0.0055 -0.1372,0.0499 -0.0311,0.0451 -0.0191,0.1075 0.0242,0.1411 0.227,0.1757 0.8518,0.7491 0.8518,1.7381 l -0.0019,9.592 z"
     fill="#0077ff"
     id="path6" />
</svg>
